<svg width="790" height="35" viewBox="0 0 790 35" fill="none" xmlns="http://www.w3.org/2000/svg">
<path d="M7.975 25.5H1.775V8.825H7.975C13.175 8.825 16.7 12.275 16.7 17.175C16.7 22.075 13.175 25.5 7.975 25.5ZM4.7 11.4V22.925H7.975C11.6 22.925 13.7 20.325 13.7 17.175C13.7 13.95 11.7 11.4 7.975 11.4H4.7ZM20.749 11.425C19.874 11.425 19.124 10.7 19.124 9.8C19.124 8.9 19.874 8.175 20.749 8.175C21.649 8.175 22.374 8.9 22.374 9.8C22.374 10.7 21.649 11.425 20.749 11.425ZM22.074 25.5H19.449V13.425H22.074V25.5ZM24.4293 23.925L25.6293 22.025C26.4793 22.9 28.1543 23.725 29.7293 23.725C31.3043 23.725 32.1043 23.15 32.1043 22.25C32.1043 21.2 30.8293 20.825 29.3543 20.5C27.2793 20.05 24.8043 19.5 24.8043 16.8C24.8043 14.825 26.5043 13.125 29.5543 13.125C31.6043 13.125 33.1543 13.85 34.2543 14.825L33.1543 16.675C32.4293 15.85 31.0793 15.225 29.5793 15.225C28.2043 15.225 27.3293 15.725 27.3293 16.575C27.3293 17.5 28.5293 17.825 29.9543 18.15C32.0543 18.6 34.6293 19.2 34.6293 22.05C34.6293 24.175 32.8543 25.8 29.6043 25.8C27.5543 25.8 25.6793 25.15 24.4293 23.925ZM36.5213 19.45C36.5213 15.8 39.0963 13.125 42.7713 13.125C45.1213 13.125 46.5463 14.125 47.3963 15.275L45.6713 16.875C44.9963 15.925 44.0713 15.45 42.8963 15.45C40.6963 15.45 39.2463 17.1 39.2463 19.45C39.2463 21.8 40.6963 23.475 42.8963 23.475C44.0713 23.475 44.9963 22.975 45.6713 22.05L47.3963 23.65C46.5463 24.8 45.1213 25.8 42.7713 25.8C39.0963 25.8 36.5213 23.125 36.5213 19.45ZM55.148 25.8C51.323 25.8 48.948 22.925 48.948 19.45C48.948 16 51.323 13.125 55.148 13.125C59.023 13.125 61.373 16 61.373 19.45C61.373 22.925 59.023 25.8 55.148 25.8ZM55.148 23.475C57.398 23.475 58.648 21.6 58.648 19.45C58.648 17.325 57.398 15.45 55.148 15.45C52.923 15.45 51.673 17.325 51.673 19.45C51.673 21.6 52.923 23.475 55.148 23.475ZM70.0291 25.5H67.2041L62.2791 13.425H65.0791L68.6041 22.475L72.1291 13.425H74.9541L70.0291 25.5ZM75.8523 19.45C75.8523 15.95 78.4023 13.125 81.9773 13.125C85.6023 13.125 87.9273 15.9 87.9273 19.7V20.325H78.6023C78.8023 22.15 80.1773 23.65 82.4523 23.65C83.6273 23.65 85.0273 23.175 85.8773 22.325L87.0773 24.05C85.8773 25.2 84.1023 25.8 82.1773 25.8C78.5523 25.8 75.8523 23.275 75.8523 19.45ZM81.9773 15.275C79.7273 15.275 78.7023 17 78.5773 18.475H85.3773C85.3273 17.05 84.3523 15.275 81.9773 15.275ZM93.1434 25.5H90.5184V13.425H93.1434V15.2C94.0434 14.05 95.4934 13.15 97.0684 13.15V15.75C96.8434 15.7 96.5684 15.675 96.2434 15.675C95.1434 15.675 93.6684 16.425 93.1434 17.275V25.5ZM123.006 25.5H120.081V12.875L114.956 25.5H113.706L108.606 12.875V25.5H105.681V8.825H109.806L114.331 20.05L118.881 8.825H123.006V25.5ZM131.93 25.8C128.105 25.8 125.73 22.925 125.73 19.45C125.73 16 128.105 13.125 131.93 13.125C135.805 13.125 138.155 16 138.155 19.45C138.155 22.925 135.805 25.8 131.93 25.8ZM131.93 23.475C134.18 23.475 135.43 21.6 135.43 19.45C135.43 17.325 134.18 15.45 131.93 15.45C129.705 15.45 128.455 17.325 128.455 19.45C128.455 21.6 129.705 23.475 131.93 23.475ZM143.436 25.5H140.811V13.425H143.436V15.2C144.336 14.05 145.786 13.15 147.361 13.15V15.75C147.136 15.7 146.861 15.675 146.536 15.675C145.436 15.675 143.961 16.425 143.436 17.275V25.5ZM148.728 19.45C148.728 15.95 151.278 13.125 154.853 13.125C158.478 13.125 160.803 15.9 160.803 19.7V20.325H151.478C151.678 22.15 153.053 23.65 155.328 23.65C156.503 23.65 157.903 23.175 158.753 22.325L159.953 24.05C158.753 25.2 156.978 25.8 155.053 25.8C151.428 25.8 148.728 23.275 148.728 19.45ZM154.853 15.275C152.603 15.275 151.578 17 151.453 18.475H158.253C158.203 17.05 157.228 15.275 154.853 15.275Z" fill="white"/>
<rect x="172.5" y="0.5" width="34" height="34" rx="17" stroke="#94D4FF"/>
<path d="M185.02 25.8297C185.055 25.9342 185.134 26 185.22 26C186.927 26 188.523 25.1556 189.484 23.7447L193.943 17.1936C194.019 17.0832 194.019 16.9148 193.943 16.8026L189.484 10.255C188.523 8.84424 186.927 8 185.22 8C185.134 8 185.056 8.06775 185.02 8.17033C184.983 8.27484 184.998 8.39678 185.055 8.48194L187.035 11.4522C189.273 14.8097 189.274 19.1832 187.037 22.5416L185.055 25.5181C184.998 25.6032 184.985 25.7252 185.02 25.8297Z" fill="#94D4FF"/>
</svg>
