<svg width="94" height="91" viewBox="0 0 94 91" fill="none" xmlns="http://www.w3.org/2000/svg">
<path d="M54.714 10.4555L54.693 0.0256004H54.1996L54.2221 10.2421C54.2236 11.0948 53.9234 11.9095 53.3989 12.4805L46.9096 19.0768L46.9026 15.5188V15.4978C46.9274 14.9462 47.1354 14.4279 47.4822 14.0671L52.4477 9.07368C52.8783 8.62446 53.1258 7.9642 53.1188 7.27058L53.0831 3.46111L53.0754 -3.8147e-06L52.592 0.00154877L52.5998 3.29275C52.6013 3.95921 52.367 4.59386 51.9581 5.03999L46.8041 10.3011C46.7234 10.3888 46.652 10.4857 46.5876 10.5905C46.5224 10.4857 46.4503 10.3888 46.3688 10.3026L41.1512 5.06093C40.7415 4.61792 40.5041 3.98326 40.5041 3.31602L40.4971 0.0256004L40.0138 0.027153L40.0215 3.48827L40.0006 7.29774C39.9959 7.99058 40.245 8.64851 40.6787 9.09541L45.6636 14.0694C46.0119 14.431 46.2206 14.9462 46.2493 15.4994V15.5203L46.2571 19.0784L39.7391 12.5045C39.2131 11.9374 38.912 11.1251 38.9105 10.2739L38.8895 0.0574112H38.3976L38.4186 10.4881L38.3914 15.2759C38.3868 16.1332 38.6925 16.9432 39.2278 17.4964L45.489 23.7452C45.9336 24.2014 46.2074 24.8679 46.2416 25.5793L46.2641 42.2549L46.5861 42.6172L46.9492 42.2549L46.9181 25.6057V25.5747C46.9523 24.8679 47.2238 24.1967 47.6653 23.739L53.9311 17.4662C54.4649 16.9114 54.7675 16.0991 54.759 15.2433L54.714 10.4555ZM44.6138 27.0449L38.0888 20.4618C37.5628 19.8923 37.2602 19.0799 37.2587 18.2265L37.2207 0.059742H36.7272V23.2308C36.7233 24.0881 37.0391 24.8973 37.576 25.4505L43.8356 31.6985C44.3182 32.1951 44.596 32.9197 44.5975 33.6855L44.6107 40.6147L45.3028 41.3006L45.3082 28.931C45.3098 28.2095 45.0576 27.5221 44.6138 27.0449ZM56.4449 0.0209465L55.8692 0.0224991L55.9057 18.1893C55.9065 19.0427 55.6085 19.8566 55.0841 20.4276L48.5839 27.0372C48.1417 27.5159 47.8926 28.2048 47.8973 28.9264V41.3068L48.6405 40.6085V40.5938L48.6274 33.677C48.6258 32.912 48.9005 32.1858 49.3807 31.6877L55.6163 25.4148C56.1501 24.8586 56.4511 24.0493 56.4449 23.192V0.0209465Z" fill="white"/>
<path d="M24.2262 17.3051L16.0618 10.8143L15.7538 11.1999L23.7529 17.5565C24.4202 18.0879 24.8694 18.8297 24.9881 19.5962L26.0952 28.7824L23.3099 26.5689L23.2936 26.5557C22.8785 26.1918 22.6023 25.7061 22.5371 25.2096L21.7318 18.2144C21.6503 17.5976 21.288 16.9917 20.7418 16.5649L17.7423 14.2164L15.033 12.0626L14.7328 12.4412L17.3094 14.4887C17.8308 14.903 18.1815 15.4826 18.2746 16.08L19.1707 23.3902C19.1893 23.5081 19.2203 23.6245 19.2622 23.7401C19.1396 23.7261 19.0186 23.7215 18.8999 23.7316L11.5486 24.5392C10.9473 24.5834 10.3026 24.3724 9.782 23.9566L7.20537 21.9091L6.90511 22.2877L9.61441 24.4407L12.579 26.8334C13.1174 27.2703 13.787 27.4852 14.4069 27.4254L21.4044 26.6333C21.904 26.5859 22.4371 26.7442 22.8878 27.0678L22.9041 27.0802L25.6887 29.2937L16.4847 30.286C15.7135 30.3442 14.891 30.0727 14.2246 29.542L6.22701 23.1846L5.91977 23.5694L14.0857 30.061L17.8106 33.069C18.4778 33.6075 19.301 33.8736 20.0676 33.7999L28.8573 32.806C29.4912 32.7432 30.1825 32.9449 30.7605 33.3615L43.8066 43.748L44.2907 43.7224L44.2341 43.2126L31.2027 32.8502L31.1787 32.8301C30.6472 32.3622 30.2926 31.7322 30.2104 31.1014L29.2173 22.2908C29.1164 21.5273 28.6703 20.7841 27.9961 20.2573L24.2262 17.3051ZM30.8901 35.5487L21.6744 36.541C20.9009 36.5969 20.0769 36.3261 19.4096 35.7954L5.18813 24.4903L4.88089 24.8759L22.9887 39.3318C23.6559 39.8702 24.4861 40.1286 25.2534 40.0541L34.0408 39.0602C34.7306 38.9919 35.47 39.2278 36.0697 39.7042L41.493 44.0164L42.4605 43.9039L32.7971 36.1818C32.2338 35.731 31.5402 35.499 30.8901 35.5487ZM17.1519 9.44254L16.7934 9.89331L31.0134 21.1991C31.6814 21.7298 32.1314 22.4708 32.2501 23.2373L33.3612 32.4406C33.4589 33.0853 33.8422 33.7099 34.4086 34.1568L44.0836 41.8797L44.0029 40.8633L43.9912 40.854L38.5773 36.5495C37.9783 36.0732 37.5818 35.4059 37.4926 34.7201L36.4801 25.9334C36.3785 25.1692 35.9339 24.4283 35.2597 23.8984L17.1519 9.44254Z" fill="white"/>
<path d="M10.5587 45.4053L0.392586 47.736L0.501982 48.2178L10.4594 45.9321C11.2911 45.742 12.1515 45.8537 12.8242 46.2393L20.6945 51.1055L17.2272 51.9008L17.2063 51.9055C16.6631 52.0032 16.1107 51.9155 15.6825 51.6572L9.71299 47.9214C9.17998 47.601 8.48093 47.5056 7.80671 47.6669L4.09965 48.5452L0.726205 49.3195L0.834826 49.7905L4.04223 49.0542C4.69163 48.9044 5.36275 48.9921 5.888 49.2924L12.1601 53.153C12.264 53.212 12.3742 53.2601 12.4906 53.2997C12.4029 53.3866 12.3245 53.4781 12.2586 53.5774L8.30326 59.8262C7.96188 60.3235 7.39472 60.696 6.74533 60.8434L3.53792 61.5797L3.64654 62.0506L7.01921 61.2763L10.7387 60.4531C11.416 60.3034 12.0018 59.9154 12.3424 59.3933L16.0882 53.43C16.3629 53.0103 16.8199 52.6922 17.3529 52.5417L17.3731 52.5378L20.8404 51.7417L15.8741 59.5539C15.4381 60.1924 14.7126 60.6665 13.8825 60.8566L3.9243 63.1399L4.0337 63.6202L14.2006 61.2887L18.8759 60.2537C19.7123 60.0683 20.4346 59.5911 20.8551 58.9464L25.5615 51.457C25.9083 50.9224 26.4972 50.5074 27.183 50.3165L43.4396 46.6001L43.722 46.2052L43.2883 45.9321L27.0597 49.6508L27.0294 49.6578C26.3327 49.7811 25.6181 49.6648 25.0735 49.3358L17.5686 44.6155C16.9099 44.2175 16.0502 44.1026 15.2177 44.3012L10.5587 45.4053ZM28.9729 51.5796L23.9997 59.4003C23.5605 60.0396 22.8351 60.5152 22.0042 60.7053L4.29671 64.7669L4.40611 65.2479L27.0015 60.1141C27.8379 59.9286 28.5579 59.4414 28.9784 58.7951L33.684 51.3073C34.061 50.7261 34.7058 50.2955 35.4529 50.1241L42.2068 48.5755L42.722 47.7492L30.6589 50.4841C29.9544 50.6424 29.3399 51.0404 28.9729 51.5796ZM0 46.0291L0.128793 46.59L17.8363 42.53C18.668 42.3399 19.5276 42.45 20.2011 42.8356L28.0861 47.7088C28.651 48.0347 29.3779 48.1247 30.0809 47.961L42.1533 45.2175L41.3083 44.6473L41.2936 44.6504L34.5514 46.1959C33.8058 46.3666 33.0369 46.2603 32.4449 45.9018L24.9462 41.2118C24.286 40.8138 23.4294 40.6997 22.5954 40.8952L0 46.0291Z" fill="white"/>
<path d="M23.9927 73.6178L19.4717 83.0173L19.9163 83.2315L24.3426 74.0236C24.7127 73.2555 25.3372 72.6526 26.058 72.3671L34.7709 69.2528L33.2293 72.4587L33.22 72.4773C32.9577 72.963 32.545 73.34 32.0748 73.5138L25.4319 75.8484C24.8484 76.0649 24.3379 76.5521 24.0431 77.1798L22.4169 80.6246L20.9172 83.7443L21.3532 83.953L22.7784 80.9869C23.0671 80.3864 23.5543 79.9162 24.1168 79.6928L31.0468 77.1992C31.1577 77.1557 31.264 77.0991 31.3672 77.0331C31.3812 77.1557 31.4037 77.2744 31.4394 77.3877L33.8554 84.3774C34.0315 84.9547 33.9687 85.6297 33.6785 86.2294L32.2533 89.1955L32.6885 89.4042L34.1882 86.2853L35.8649 82.8645C36.1706 82.2423 36.2326 81.5424 36.0371 80.9504L33.7142 74.3029C33.5575 73.8265 33.5939 73.271 33.8088 72.7605L33.8182 72.7418L35.3598 69.5352L38.3663 78.2908C38.5936 79.0302 38.5106 79.8929 38.142 80.6595L33.7142 89.8666L34.1572 90.0808L38.6781 80.6804L40.7862 76.3814C41.1632 75.6117 41.2408 74.7498 40.9995 74.0189L38.0823 65.6675C37.8806 65.0639 37.924 64.3439 38.2025 63.6891L45.4405 48.6661L45.3079 48.1991L44.8237 48.3674L37.6051 63.3702L37.5919 63.3989C37.2537 64.0204 36.7168 64.5061 36.1201 64.7264L27.7486 67.6468C27.0271 67.9137 26.4009 68.5134 26.0363 69.2877L23.9927 73.6178ZM40.3059 63.0777L43.3155 71.8449C43.5412 72.5867 43.4606 73.4502 43.0905 74.2183L35.217 90.5905L35.6616 90.8054L45.7462 69.9441C46.1233 69.1744 46.1916 68.3078 45.9487 67.5762L43.0323 59.2271C42.8135 58.57 42.8794 57.7964 43.2115 57.1059L46.2149 50.8618L45.8905 49.9432L40.5014 61.0776C40.1864 61.7262 40.1143 62.4547 40.3059 63.0777ZM17.8929 82.2585L18.4119 82.5076L26.2861 66.1362C26.6562 65.3681 27.2792 64.7644 28 64.4789L36.7284 61.3569C37.3351 61.1187 37.8596 60.6066 38.1692 59.9549L43.5575 48.8089L42.5838 49.113L42.5776 49.127L39.5789 55.3602C39.2476 56.0492 38.6844 56.5838 38.0357 56.8227L29.6914 59.757C28.969 60.0255 28.3452 60.6229 27.9775 61.3972L17.8929 82.2585Z" fill="white"/>
<path d="M54.4225 80.7201L58.9481 90.1173L59.3927 89.904L54.9586 80.6999C54.5885 79.9311 54.5071 79.0675 54.7336 78.3258L57.7354 69.5733L59.2794 72.7784L59.2879 72.797C59.5036 73.306 59.5408 73.8631 59.3833 74.3387L57.0635 80.987C56.8688 81.5782 56.9308 82.2811 57.2373 82.9026L58.9155 86.3234L60.4176 89.4408L60.8528 89.2305L59.4245 86.266C59.1351 85.6662 59.0714 84.992 59.2476 84.4132L61.6225 77.4413C61.6574 77.3273 61.6799 77.2093 61.6923 77.0875C61.797 77.1535 61.9033 77.2093 62.0143 77.252L68.9846 79.7247C69.5456 79.9474 70.0336 80.4175 70.3222 81.0188L71.7506 83.9834L72.1858 83.7731L70.683 80.6549L69.056 77.2109C68.7604 76.5832 68.2522 76.0983 67.6672 75.8818L61.0227 73.5496C60.5526 73.375 60.1414 73.0003 59.8768 72.5138L59.8675 72.4944L58.3235 69.2894L67.0419 72.4021C67.7611 72.6861 68.3841 73.2881 68.7534 74.0555L73.1867 83.2603L73.6305 83.0477L69.1041 73.6497L67.0597 69.3204C66.6935 68.5453 66.0682 67.9471 65.3458 67.6795L56.9999 64.749C56.4017 64.5295 55.8664 64.0469 55.5281 63.4208L48.3025 48.3916L47.8556 48.2038L47.6849 48.6872L54.9066 63.6884L54.9206 63.7164C55.1945 64.3689 55.2402 65.0912 55.0401 65.6948L52.0988 74.0594C51.8575 74.7902 51.9359 75.6537 52.3137 76.4218L54.4225 80.7201ZM56.3629 61.395L65.0921 64.5124C65.8129 64.7987 66.4367 65.4008 66.8068 66.1696L74.6895 82.5364L75.1349 82.3238L65.1232 61.4276C64.757 60.6525 64.1215 60.059 63.3984 59.7921L55.054 56.8624C54.4039 56.6234 53.8406 56.0896 53.5085 55.3991L50.5028 49.1558L49.5819 48.8361L54.9214 59.9946C55.2317 60.6455 55.7562 61.1568 56.3629 61.395ZM57.37 90.8784L57.8883 90.6278L50.0063 74.2603C49.6362 73.4914 49.5532 72.6287 49.7805 71.8869L52.7854 63.1174C52.9778 62.4944 52.9049 61.7658 52.5891 61.1165L47.2396 49.9518L46.8703 50.903L46.8773 50.9162L49.8775 57.1487C50.2096 57.8377 50.2763 58.6112 50.0583 59.2676L47.1449 67.6189C46.9036 68.3513 46.982 69.211 47.3583 69.9822L57.37 90.8784Z" fill="white"/>
<path d="M78.9576 61.3696L89.1244 63.6956L89.2361 63.2146L79.2757 60.9382C78.4447 60.7473 77.7185 60.2725 77.2809 59.6324L72.3131 51.8265L75.7812 52.6194L75.8014 52.6241C76.3328 52.773 76.7921 53.0911 77.0652 53.5109L80.8142 59.4718C81.1548 59.9932 81.7421 60.3827 82.4194 60.5316L86.1397 61.3533L89.5131 62.1245L89.621 61.6535L86.4128 60.9211C85.7626 60.7722 85.1962 60.4013 84.8541 59.9032L80.8871 53.6971C80.8196 53.5985 80.7413 53.507 80.6544 53.4216C80.7707 53.3805 80.8809 53.3332 80.9841 53.2727L87.2647 49.3686C87.7884 49.0683 88.4611 48.9799 89.1105 49.1304L92.3179 49.8628L92.4257 49.3918L89.0515 48.6206L85.3444 47.7439C84.6702 47.5833 83.9735 47.678 83.4397 47.9999L77.4718 51.738C77.042 51.9964 76.4919 52.0841 75.9472 51.9871L75.9263 51.9824L72.4582 51.1895L80.3301 46.3179C81.0004 45.9323 81.86 45.8221 82.6902 46.0122L92.6492 48.2901L92.7601 47.8106L82.5917 45.4846L77.9326 44.3813C77.0978 44.1843 76.2405 44.2999 75.581 44.6971L68.0839 49.3911C67.5392 49.7216 66.8278 49.8395 66.1272 49.7123L49.8737 45.9827L49.4485 46.2155L49.72 46.6507L65.9495 50.3655L65.9797 50.3725C66.6609 50.5649 67.2529 50.98 67.5997 51.513L72.3022 59.0296C72.7227 59.6743 73.4466 60.1522 74.2822 60.3361L78.9576 61.3696ZM65.0658 47.7967L72.9477 42.9196C73.6212 42.5348 74.4808 42.4231 75.3118 42.6131L93.0216 46.6639L93.1325 46.1829L70.5558 40.9706C69.7217 40.7728 68.8613 40.8993 68.2018 41.2973L60.7062 45.9912C60.1142 46.3505 59.3454 46.4575 58.5982 46.2861L51.8443 44.7406L51.0204 45.2604L63.071 48.0488C63.774 48.2125 64.5009 48.1217 65.0658 47.7967ZM88.7349 65.4033L88.863 64.8423L71.154 60.7908C70.3222 60.5999 69.596 60.1266 69.1577 59.4865L64.1797 51.6667C63.8128 51.1274 63.1975 50.7302 62.4938 50.5719L50.4307 47.7874L50.9436 48.6695L50.9575 48.6726L57.7005 50.2158C58.4461 50.3857 59.0917 50.8171 59.4687 51.3967L64.1782 58.8829C64.6003 59.5284 65.3218 60.004 66.1582 60.191L88.7349 65.4033Z" fill="white"/>
<path d="M79.1417 30.1224L87.303 23.6277L86.9957 23.2405L79.0036 29.6041C78.3356 30.1356 77.5116 30.4064 76.7381 30.3497L67.5379 29.3613L70.3209 27.1454L70.338 27.133C70.7857 26.8103 71.321 26.6504 71.8199 26.6985L78.8174 27.4876C79.4365 27.5466 80.1076 27.3301 80.6469 26.8941L83.6099 24.4998L86.3176 22.3444L86.0166 21.9666L83.4423 24.0164C82.9209 24.4315 82.2777 24.6425 81.6741 24.5991L74.3492 23.8279C74.2305 23.8193 74.1102 23.8232 73.9884 23.838C74.0296 23.7216 74.0614 23.6052 74.0777 23.4873L74.9451 16.143C75.0374 15.5463 75.3881 14.966 75.9102 14.5517L78.4845 12.5019L78.1835 12.1248L75.4758 14.2801L72.4771 16.6302C71.9316 17.0569 71.5709 17.6606 71.4894 18.2781L70.6871 25.2748C70.6212 25.7722 70.3465 26.2563 69.9307 26.6217L69.9144 26.6349L67.1314 28.8508L68.2347 19.6592C68.3518 18.8949 68.8018 18.154 69.4683 17.6241L77.462 11.262L77.1563 10.8764L68.9942 17.3719L65.2251 20.3249C64.5509 20.854 64.1063 21.5965 64.0047 22.3592L62.9968 31.1473C62.9154 31.7797 62.5631 32.4081 62.027 32.8767L48.9724 43.2523L48.8886 43.7302L49.3975 43.7892L62.4258 33.4237L62.4506 33.4043C63.0255 32.9916 63.7199 32.7875 64.353 32.8496L73.1614 33.8636C73.9271 33.9373 74.7527 33.6697 75.4176 33.1312L79.1417 30.1224ZM59.867 32.5113L60.9734 23.3088C61.0929 22.5423 61.5413 21.8005 62.2093 21.2699L76.4231 9.95626L76.1166 9.56911L57.9576 23.9621C57.2826 24.4912 56.845 25.2415 56.7449 26.0057L55.7363 34.7915C55.6479 35.479 55.2522 36.1462 54.6524 36.6234L49.2307 40.9379L49.1229 41.9062L58.8204 34.2275C59.3867 33.7806 59.7692 33.156 59.867 32.5113ZM88.3946 24.9979L88.0354 24.5479L73.8208 35.8599C73.1528 36.3906 72.3296 36.6629 71.5561 36.6063L62.3397 35.6186C61.6887 35.569 60.9943 35.8017 60.4318 36.2533L50.7297 43.9428L51.7383 44.0926L51.75 44.0832L57.1631 39.7764C57.7613 39.3001 58.5007 39.0642 59.1889 39.1309L67.9786 40.1217C68.7459 40.1946 69.5676 39.9277 70.2356 39.3901L88.3946 24.9979Z" fill="white"/>
</svg>
